<?xml version="1.0" standalone="no"?>
<!DOCTYPE svg PUBLIC "-//W3C//DTD SVG 20010904//EN"
 "http://www.w3.org/TR/2001/REC-SVG-20010904/DTD/svg10.dtd">
<svg version="1.0" xmlns="http://www.w3.org/2000/svg"
 width="1548.000000pt" height="701.000000pt" viewBox="0 0 1548.000000 701.000000"
 preserveAspectRatio="xMidYMid meet">

<g transform="translate(0.000000,701.000000) scale(0.100000,-0.100000)"
fill="#000000" stroke="none">
<path d="M1200 5550 l0 -250 280 0 280 0 2 -742 3 -743 302 -3 303 -2 2 742 3
743 278 3 277 2 0 250 0 250 -865 0 -865 0 0 -250z"/>
<path d="M3030 4805 l0 -995 835 0 835 0 0 255 0 255 -530 0 -530 0 0 125 0
125 530 0 530 0 0 240 0 240 -530 0 -530 0 0 125 0 125 530 0 530 0 0 250 0
250 -835 0 -835 0 0 -995z"/>
<path d="M4810 4805 l0 -995 413 0 c671 0 815 17 1027 122 92 46 116 63 200
147 142 143 209 285 245 517 21 130 16 385 -10 499 -73 327 -238 541 -497 644
-148 59 -172 61 -803 61 l-575 0 0 -995z m987 467 c124 -39 201 -104 253 -214
69 -146 64 -383 -12 -532 -33 -65 -103 -131 -170 -161 -72 -32 -156 -44 -325
-45 l-123 0 0 492 0 491 158 -6 c114 -4 174 -11 219 -25z"/>
<path d="M6816 5773 c9 -16 100 -148 201 -296 100 -147 183 -270 183 -273 0
-3 -82 -126 -182 -272 -100 -147 -194 -286 -210 -309 l-29 -43 223 0 223 0 88
150 c49 83 92 150 95 150 4 -1 47 -68 96 -150 l90 -150 223 0 223 0 -83 123
c-255 374 -337 496 -337 502 0 4 34 57 77 118 42 62 132 194 200 295 l124 182
-223 0 -223 0 -72 -128 c-40 -70 -78 -135 -85 -145 -13 -17 -22 -4 -93 127
l-80 146 -224 0 -223 0 18 -27z"/>
<path d="M4385 3151 c-291 -37 -530 -247 -635 -561 -82 -244 -82 -607 0 -850
76 -225 225 -408 405 -495 111 -53 182 -68 330 -69 185 -1 294 31 430 128 142
102 277 305 301 454 6 41 6 42 -23 42 -28 0 -31 -4 -47 -62 -50 -181 -194
-356 -356 -435 -151 -74 -300 -91 -459 -53 -306 74 -524 347 -572 715 -15 118
-6 407 16 495 50 203 149 372 282 483 67 54 193 119 273 138 79 19 251 16 330
-5 229 -62 433 -269 491 -499 11 -44 13 -47 44 -47 l33 0 -15 58 c-68 262
-285 486 -528 546 -75 18 -221 26 -300 17z"/>
<path d="M8322 3149 c-108 -19 -238 -90 -310 -167 -24 -26 -60 -81 -80 -121
-37 -74 -37 -76 -37 -195 0 -113 2 -125 29 -181 64 -131 214 -235 441 -306
310 -96 404 -134 491 -200 107 -82 150 -179 142 -321 -5 -77 -11 -100 -42
-163 -85 -172 -264 -265 -512 -265 -286 1 -483 135 -535 366 -11 51 -14 55
-38 52 -23 -3 -26 -7 -23 -38 15 -175 166 -346 362 -410 67 -22 92 -25 235
-25 137 0 170 4 230 22 98 31 187 87 255 160 98 105 137 216 127 369 -13 215
-171 357 -517 463 -324 100 -388 130 -481 221 -89 88 -113 148 -107 275 6 117
35 184 116 264 99 100 233 151 393 151 258 0 455 -149 502 -378 14 -68 25 -86
50 -76 34 13 12 128 -46 239 -60 113 -164 197 -307 247 -64 23 -254 33 -338
17z"/>
<path d="M1285 3100 c8 -35 359 -1313 464 -1686 22 -77 43 -157 46 -178 7 -37
7 -37 53 -34 l47 3 47 180 c27 99 78 293 114 430 36 138 88 329 114 425 26 96
60 222 75 280 15 58 34 128 41 155 8 28 33 117 55 200 22 82 42 151 44 154 6
6 6 7 105 -364 118 -447 166 -625 205 -770 29 -107 65 -243 141 -530 48 -182
39 -165 87 -165 l42 0 144 523 c79 287 147 536 152 552 28 93 229 832 229 842
0 23 -50 15 -60 -9 -6 -13 -66 -228 -135 -478 -69 -250 -136 -495 -150 -545
-14 -49 -67 -243 -118 -429 -52 -187 -98 -341 -103 -343 -6 -2 -56 171 -113
384 -136 512 -277 1037 -305 1143 -13 47 -36 131 -51 188 l-27 102 -39 0 c-21
0 -40 -4 -44 -9 -4 -8 -59 -209 -256 -946 -16 -60 -43 -162 -60 -225 -16 -63
-51 -191 -76 -285 -25 -93 -56 -210 -68 -258 -13 -49 -27 -93 -32 -98 -6 -6
-20 29 -37 93 -16 57 -34 126 -42 153 -37 130 -126 455 -255 925 -199 726
-174 650 -210 650 -29 0 -30 -2 -24 -30z"/>
<path d="M5640 2165 l0 -965 524 0 c342 0 527 4 531 10 3 6 3 19 0 30 -6 20
-16 20 -501 20 l-494 0 0 435 0 435 453 2 452 3 3 27 c3 22 -2 29 -20 33 -13
3 -218 4 -456 3 l-432 -3 0 437 0 438 483 2 482 3 3 28 3 27 -515 0 -516 0 0
-965z"/>
<path d="M13710 2165 l0 -965 28 0 27 0 -3 965 -2 965 -25 0 -25 0 0 -965z"/>
<path d="M14197 3012 c-49 -54 19 -127 76 -81 31 23 34 45 11 77 -19 27 -64
29 -87 4z"/>
<path d="M9780 2664 c-64 -13 -154 -49 -208 -83 -91 -59 -177 -176 -151 -207
20 -24 37 -16 63 29 75 127 226 206 398 207 196 1 351 -95 398 -247 26 -84 28
-227 4 -262 -32 -45 -115 -71 -334 -102 -113 -17 -236 -39 -275 -50 -88 -26
-179 -76 -227 -126 -67 -69 -97 -189 -78 -309 22 -139 101 -242 230 -302 65
-30 88 -36 170 -40 54 -2 120 1 152 7 130 27 262 125 333 247 l40 68 3 -147 3
-147 30 0 30 0 -3 573 c-3 568 -3 572 -26 627 -48 117 -148 209 -266 246 -50
15 -238 27 -286 18z m520 -779 c0 -246 -44 -384 -162 -510 -89 -96 -178 -137
-309 -143 -140 -7 -230 27 -315 116 -120 127 -121 340 -2 448 79 71 199 111
438 144 164 23 249 43 300 69 19 10 38 19 43 20 4 0 7 -64 7 -144z"/>
<path d="M11235 2664 c-141 -20 -256 -85 -331 -188 l-43 -59 -3 114 c-3 111
-4 114 -26 114 l-22 0 -3 -723 -2 -722 28 0 27 0 0 503 c0 535 4 587 50 677
79 154 284 252 464 222 190 -33 323 -156 356 -332 6 -31 10 -262 10 -561 l0
-509 30 0 30 0 0 513 c0 556 -3 595 -55 697 -33 65 -114 153 -173 187 -84 50
-241 81 -337 67z"/>
<path d="M12592 2659 c-52 -10 -146 -55 -196 -95 -53 -41 -124 -137 -162 -220
-93 -200 -113 -482 -49 -707 30 -105 58 -162 118 -242 53 -69 94 -103 173
-145 78 -40 151 -53 264 -47 191 10 333 99 418 264 28 54 39 68 44 55 13 -34
8 -384 -7 -470 -43 -248 -186 -360 -463 -363 -215 -2 -363 62 -433 186 -32 56
-36 59 -63 49 -23 -9 -20 -35 13 -85 69 -107 192 -179 347 -205 109 -17 157
-17 257 1 200 35 336 156 393 350 16 55 18 129 21 848 3 546 1 793 -7 801 -5
8 -20 13 -31 12 -21 -1 -22 -4 -20 -168 1 -100 -2 -168 -8 -172 -5 -4 -26 29
-47 71 -68 142 -209 257 -347 284 -59 11 -155 10 -215 -2z m223 -63 c103 -27
181 -83 248 -179 110 -157 163 -390 138 -601 -25 -205 -82 -337 -190 -438 -88
-82 -154 -110 -279 -116 -149 -7 -247 30 -347 132 -115 118 -163 252 -172 481
-8 218 27 377 115 515 39 62 120 143 166 167 96 50 223 66 321 39z"/>
<path d="M14210 1925 l0 -725 30 0 30 0 0 720 c0 396 -3 720 -7 721 -5 0 -18
2 -30 5 l-23 4 0 -725z"/>
</g>
</svg>
