<?xml version="1.0" encoding="UTF-8"?>
<!DOCTYPE svg PUBLIC "-//W3C//DTD SVG 1.1//EN" "http://www.w3.org/Graphics/SVG/1.1/DTD/svg11.dtd">
<svg xmlns="http://www.w3.org/2000/svg" version="1.1" width="1548px" height="701px" style="shape-rendering:geometricPrecision; text-rendering:geometricPrecision; image-rendering:optimizeQuality; fill-rule:evenodd; clip-rule:evenodd" xmlns:xlink="http://www.w3.org/1999/xlink">
<g><path style="opacity:0.976" fill="#ea0028" d="M 119.5,119.5 C 177.5,119.5 235.5,119.5 293.5,119.5C 293.5,136.833 293.5,154.167 293.5,171.5C 274.833,171.5 256.167,171.5 237.5,171.5C 237.5,220.833 237.5,270.167 237.5,319.5C 216.5,319.5 195.5,319.5 174.5,319.5C 174.5,270.167 174.5,220.833 174.5,171.5C 156.167,171.5 137.833,171.5 119.5,171.5C 119.5,154.167 119.5,136.833 119.5,119.5 Z"/></g>
<g><path style="opacity:0.982" fill="#ea0027" d="M 301.5,119.5 C 357.833,119.5 414.167,119.5 470.5,119.5C 470.5,136.833 470.5,154.167 470.5,171.5C 435.167,171.5 399.833,171.5 364.5,171.5C 364.5,179.167 364.5,186.833 364.5,194.5C 399.833,194.5 435.167,194.5 470.5,194.5C 470.5,211.167 470.5,227.833 470.5,244.5C 435.167,244.5 399.833,244.5 364.5,244.5C 364.5,252.167 364.5,259.833 364.5,267.5C 399.833,267.5 435.167,267.5 470.5,267.5C 470.5,284.833 470.5,302.167 470.5,319.5C 414.167,319.5 357.833,319.5 301.5,319.5C 301.5,252.833 301.5,186.167 301.5,119.5 Z"/></g>
<g><path style="opacity:0.985" fill="#ea0027" d="M 479.5,119.5 C 518.835,119.333 558.168,119.5 597.5,120C 637.479,126.979 661.313,150.479 669,190.5C 674.4,218.675 671.733,246.008 661,272.5C 650.137,292.351 633.97,306.184 612.5,314C 604.55,315.881 596.55,317.547 588.5,319C 552.168,319.5 515.835,319.667 479.5,319.5C 479.5,252.833 479.5,186.167 479.5,119.5 Z M 542.5,171.5 C 596.786,167.29 617.286,191.623 604,244.5C 597.809,257.354 587.642,264.854 573.5,267C 563.172,267.5 552.839,267.666 542.5,267.5C 542.5,235.5 542.5,203.5 542.5,171.5 Z"/></g>
<g><path style="opacity:0.977" fill="#ea0027" d="M 677.5,120.5 C 692.995,119.339 708.661,119.172 724.5,120C 729.699,129.187 734.866,138.353 740,147.5C 745.626,138.416 751.126,129.25 756.5,120C 772.167,119.333 787.833,119.333 803.5,120C 789.585,139.829 775.919,159.829 762.5,180C 776.289,200.959 790.289,221.793 804.5,242.5C 788.833,243.833 773.167,243.833 757.5,242.5C 752.169,232.501 746.336,222.835 740,213.5C 734.558,223.549 728.725,233.382 722.5,243C 707.17,243.5 691.837,243.667 676.5,243.5C 689.862,221.952 703.862,200.785 718.5,180C 704.738,160.169 691.072,140.335 677.5,120.5 Z"/></g>
<g><path style="opacity:0.802" fill="#fefffe" d="M 444.5,383.5 C 486.076,384.616 512.076,405.283 522.5,445.5C 522.392,446.442 522.059,447.275 521.5,448C 519.231,448.758 517.064,448.591 515,447.5C 506.274,412.433 483.941,393.766 448,391.5C 420.644,393.006 400.311,405.673 387,429.5C 381.328,440.518 377.661,452.184 376,464.5C 372.265,490.722 375.932,515.722 387,539.5C 407.252,572.59 436.085,583.424 473.5,572C 495.793,561.548 509.626,544.381 515,520.5C 517.333,519.167 519.667,519.167 522,520.5C 516.322,551.856 498.155,572.356 467.5,582C 418.39,589.239 386.556,569.073 372,521.5C 364.672,491.307 366.339,461.64 377,432.5C 390.251,403.303 412.751,386.969 444.5,383.5 Z"/></g>
<g><path style="opacity:0.8" fill="#fefffe" d="M 836.5,383.5 C 857.76,381.346 875.926,387.679 891,402.5C 898.834,412.498 903,423.831 903.5,436.5C 901.076,436.808 898.743,436.474 896.5,435.5C 891.702,406.544 874.535,391.544 845,390.5C 828.164,390.877 814.164,397.21 803,409.5C 788.182,436.059 794.349,456.226 821.5,470C 835.625,475.264 849.958,479.93 864.5,484C 879.197,488.927 891.364,497.427 901,509.5C 912.781,543.157 902.281,566.991 869.5,581C 850.597,586.19 831.93,585.524 813.5,579C 796.358,570.519 786.025,556.853 782.5,538C 784.073,534.548 786.573,533.714 790,535.5C 793.369,556.205 805.202,569.372 825.5,575C 843.333,578.939 860.666,576.939 877.5,569C 895.553,557.194 902.053,540.694 897,519.5C 894.037,510.869 888.537,504.369 880.5,500C 863.786,492.148 846.453,485.815 828.5,481C 811.104,475.925 798.27,465.425 790,449.5C 783.214,419.575 794.047,398.741 822.5,387C 827.313,385.885 831.98,384.719 836.5,383.5 Z"/></g>
<g><path style="opacity:0.804" fill="#fefffe" d="M 127.5,386.5 C 129.527,386.338 131.527,386.505 133.5,387C 150.957,447.261 167.79,507.761 184,568.5C 200.936,508.339 217.436,448.006 233.5,387.5C 238.045,385.506 241.545,386.506 244,390.5C 259.515,449.572 275.349,508.572 291.5,567.5C 308.771,508.753 325.271,449.753 341,390.5C 342.608,386.646 345.274,385.646 349,387.5C 332.446,452.107 314.946,516.44 296.5,580.5C 289.86,583.401 286.027,581.401 285,574.5C 269.499,516.494 253.999,458.494 238.5,400.5C 221.648,459.899 205.481,519.565 190,579.5C 186.899,581.72 183.565,582.053 180,580.5C 162.097,516.467 144.264,452.467 126.5,388.5C 126.863,387.817 127.196,387.15 127.5,386.5 Z"/></g>
<g><path style="opacity:0.819" fill="#fefffe" d="M 563.5,386.5 C 597.835,386.333 632.168,386.5 666.5,387C 668.059,389.642 667.725,391.975 665.5,394C 633.595,394.829 601.762,394.662 570,393.5C 569.5,422.498 569.333,451.498 569.5,480.5C 600.167,480.5 630.833,480.5 661.5,480.5C 661.5,482.833 661.5,485.167 661.5,487.5C 630.833,487.5 600.167,487.5 569.5,487.5C 569.5,516.167 569.5,544.833 569.5,573.5C 602.502,573.333 635.502,573.5 668.5,574C 669.833,576.333 669.833,578.667 668.5,581C 633.262,581.829 598.095,581.662 563,580.5C 562.171,515.763 562.337,451.096 563.5,386.5 Z"/></g>
<g><path style="opacity:0.78" fill="#fefffe" d="M 1370.5,386.5 C 1372.47,386.261 1374.3,386.594 1376,387.5C 1376.67,451.833 1376.67,516.167 1376,580.5C 1374,581.833 1372,581.833 1370,580.5C 1369.17,515.763 1369.34,451.096 1370.5,386.5 Z"/></g>
<g><path style="opacity:0.773" fill="#fefffe" d="M 1420.5,396.5 C 1427.12,395.954 1430.29,398.954 1430,405.5C 1425.57,412.13 1421.23,412.13 1417,405.5C 1416.33,403.833 1416.33,402.167 1417,400.5C 1418.38,399.295 1419.54,397.962 1420.5,396.5 Z"/></g>
<g><path style="opacity:0.808" fill="#fefffe" d="M 979.5,432.5 C 1003.34,429.469 1021.17,438.136 1033,458.5C 1034.29,462.084 1035.29,465.751 1036,469.5C 1036.67,506.5 1036.67,543.5 1036,580.5C 1033.96,581.423 1031.79,581.756 1029.5,581.5C 1029.67,571.828 1029.5,562.161 1029,552.5C 1013.9,580.291 991.072,589.791 960.5,581C 940.267,570.7 932.101,554.2 936,531.5C 940.102,519.732 947.936,511.565 959.5,507C 962.893,506.202 966.226,505.202 969.5,504C 985.453,501.042 1001.45,498.376 1017.5,496C 1027.65,492.867 1031.49,486.034 1029,475.5C 1025.9,451.903 1012.4,440.236 988.5,440.5C 969.026,439.897 954.693,448.064 945.5,465C 938.83,464.813 937.664,461.98 942,456.5C 946.963,448.201 953.796,442.035 962.5,438C 968.232,435.992 973.898,434.158 979.5,432.5 Z M 1027.5,498.5 C 1028.82,501.768 1029.49,505.435 1029.5,509.5C 1030.56,527.284 1026.39,543.618 1017,558.5C 1003.09,575.186 985.924,580.686 965.5,575C 947.109,566.719 939.942,552.553 944,532.5C 945.267,528.131 947.433,524.297 950.5,521C 957.317,516.507 964.65,513.173 972.5,511C 986.524,508.726 1000.52,506.393 1014.5,504C 1019.37,503.213 1023.7,501.379 1027.5,498.5 Z"/></g>
<g><path style="opacity:0.787" fill="#fefffe" d="M 1124.5,432.5 C 1157.2,432.383 1175.7,448.383 1180,480.5C 1180.67,513.833 1180.67,547.167 1180,580.5C 1177.67,581.833 1175.33,581.833 1173,580.5C 1172.67,546.5 1172.33,512.5 1172,478.5C 1168.79,453.962 1154.79,441.295 1130,440.5C 1104.85,441.653 1090.52,454.653 1087,479.5C 1086.67,513.167 1086.33,546.833 1086,580.5C 1084,581.833 1082,581.833 1080,580.5C 1079.5,532.168 1079.33,483.834 1079.5,435.5C 1081.79,435.244 1083.96,435.577 1086,436.5C 1086.17,442.528 1086.67,448.528 1087.5,454.5C 1096.64,441.767 1108.97,434.433 1124.5,432.5 Z"/></g>
<g><path style="opacity:0.796" fill="#fefffe" d="M 1261.5,432.5 C 1288.86,430.589 1307.69,442.256 1318,467.5C 1319.47,456.997 1319.97,446.33 1319.5,435.5C 1322.39,435.042 1324.89,435.709 1327,437.5C 1327.67,487.833 1327.67,538.167 1327,588.5C 1325.44,615.382 1311.61,631.882 1285.5,638C 1266.79,641.324 1249.46,637.991 1233.5,628C 1227.28,623.122 1222.61,617.122 1219.5,610C 1221.31,607.591 1223.64,606.591 1226.5,607C 1231.58,618.544 1240.24,625.877 1252.5,629C 1299.46,638.698 1321.79,619.698 1319.5,572C 1319.11,565.186 1319.11,558.519 1319.5,552C 1319,551.5 1318.5,551 1318,550.5C 1306.1,574.017 1286.93,584.184 1260.5,581C 1242.9,576.723 1230.07,566.556 1222,550.5C 1209.88,519.741 1210.88,489.408 1225,459.5C 1233.39,445.258 1245.56,436.258 1261.5,432.5 Z M 1262.5,440.5 C 1287.22,438.717 1304.05,449.384 1313,472.5C 1321.67,496.5 1321.67,520.5 1313,544.5C 1299.71,570.94 1278.88,579.44 1250.5,570C 1235.56,560.983 1226.39,547.816 1223,530.5C 1219.3,511.926 1220.3,493.593 1226,475.5C 1230.27,464.105 1237.11,454.605 1246.5,447C 1251.62,443.925 1256.96,441.759 1262.5,440.5 Z"/></g>
<g><path style="opacity:0.778" fill="#fefffe" d="M 1419.5,435.5 C 1422.12,435.232 1424.62,435.565 1427,436.5C 1427.67,484.5 1427.67,532.5 1427,580.5C 1424.67,581.833 1422.33,581.833 1420,580.5C 1419.5,532.168 1419.33,483.834 1419.5,435.5 Z"/></g>
</svg>
