<?xml version="1.0" standalone="no"?>
<!DOCTYPE svg PUBLIC "-//W3C//DTD SVG 20010904//EN"
 "http://www.w3.org/TR/2001/REC-SVG-20010904/DTD/svg10.dtd">
<svg version="1.0" xmlns="http://www.w3.org/2000/svg"
 width="500.000000pt" height="500.000000pt" viewBox="0 0 500.000000 500.000000"
 preserveAspectRatio="xMidYMid meet">

<g transform="translate(0.000000,500.000000) scale(0.100000,-0.100000)"
fill="#000000" stroke="none">
<path d="M0 2500 l0 -2500 2500 0 2500 0 0 2500 0 2500 -2500 0 -2500 0 0
-2500z m1526 -125 c49 -29 90 -83 100 -133 l7 -32 -60 0 c-56 0 -59 2 -70 29
-14 39 -55 64 -108 65 -109 2 -173 -132 -132 -275 22 -74 52 -101 122 -107 52
-4 56 -3 90 31 19 19 35 42 35 51 0 13 12 16 61 16 l61 0 -7 -27 c-11 -48 -52
-108 -92 -136 -71 -49 -191 -54 -272 -13 -36 19 -89 79 -109 125 -23 51 -23
232 0 283 27 60 95 126 147 143 68 22 171 13 227 -20z m1255 4 c46 -25 89 -86
89 -126 0 -21 -5 -23 -52 -23 -48 0 -55 3 -70 30 -19 34 -53 50 -104 50 -61 0
-94 -25 -94 -72 0 -34 12 -40 140 -73 57 -14 116 -33 132 -41 82 -43 91 -182
17 -251 -83 -76 -275 -76 -358 0 -26 25 -51 76 -51 107 0 18 6 20 54 20 46 0
56 -3 61 -20 17 -54 90 -80 164 -60 47 12 76 48 66 80 -8 26 -47 43 -146 66
-143 32 -189 71 -189 161 0 125 77 186 226 179 52 -2 83 -9 115 -27z m1929
-29 l0 -50 -55 0 -55 0 0 50 0 50 55 0 55 0 0 -50z m-4174 -155 c23 -104 43
-192 44 -195 1 -3 17 74 36 170 18 96 36 185 39 198 5 20 11 22 69 22 l63 0
39 -190 c21 -104 41 -190 44 -190 3 0 13 37 23 83 11 45 30 130 44 190 l25
107 60 0 c44 0 59 -3 56 -12 -2 -7 -38 -133 -79 -280 l-74 -268 -57 0 c-51 0
-58 2 -63 23 -3 12 -23 110 -44 217 l-38 195 -11 -50 c-6 -27 -25 -125 -43
-217 l-33 -168 -56 0 -57 0 -76 273 c-43 149 -77 276 -77 280 0 4 28 7 62 5
l62 -3 42 -190z m1602 148 l-3 -48 -147 -3 -148 -3 0 -54 0 -55 135 0 135 0 0
-50 0 -50 -135 0 -135 0 0 -75 0 -75 155 0 155 0 0 -50 0 -50 -215 0 -215 0 0
280 0 280 211 0 210 0 -3 -47z m2362 -233 l0 -280 -55 0 -55 0 0 280 0 280 55
0 55 0 0 -280z m-1276 139 c22 -6 52 -24 68 -39 l28 -28 0 -154 c0 -123 3
-158 16 -176 l15 -22 -61 0 c-53 0 -63 3 -67 20 -7 25 -7 25 -43 -2 -36 -26
-132 -36 -169 -16 -84 45 -85 180 -2 222 14 8 58 19 96 25 99 17 105 19 105
46 0 29 -26 45 -72 45 -39 0 -51 -7 -67 -37 -10 -19 -20 -23 -61 -23 -38 0
-50 4 -50 15 0 24 25 79 43 94 46 37 146 51 221 30z m503 -6 c65 -31 73 -56
73 -245 l0 -168 -55 0 -55 0 0 148 c0 129 -2 151 -17 164 -30 25 -52 29 -88
14 -45 -19 -55 -58 -55 -208 l0 -118 -55 0 -55 0 0 210 0 210 55 0 55 0 0 -32
0 -32 16 23 c34 48 118 64 181 34z m380 7 c15 -6 38 -23 50 -38 l23 -27 0 33
c0 32 0 32 50 32 l51 0 -3 -244 c-3 -231 -4 -246 -24 -273 -33 -45 -79 -65
-155 -71 -51 -3 -81 0 -114 12 -48 19 -95 66 -95 97 0 16 7 19 52 19 40 0 57
-5 76 -22 17 -17 36 -23 69 -23 58 0 83 28 83 92 l0 45 -31 -26 c-54 -45 -151
-33 -206 26 -49 52 -68 160 -43 250 27 97 127 151 217 118z m603 -210 l0 -210
-55 0 -55 0 0 210 0 210 55 0 55 0 0 -210z"/>
<path d="M3199 2026 c-3 -3 -29 -10 -59 -16 -29 -6 -59 -15 -67 -21 -16 -14
-17 -61 -1 -77 30 -30 123 0 134 42 6 27 2 81 -7 72z"/>
<path d="M4022 2135 c-27 -34 -36 -93 -22 -144 19 -70 84 -93 137 -47 26 22
28 30 28 94 0 61 -3 74 -24 96 -34 36 -92 36 -119 1z"/>
</g>
</svg>
